<svg width="348" height="152" viewBox="0 0 348 152" fill="none" xmlns="http://www.w3.org/2000/svg">
<g opacity="0.4">
<path fill-rule="evenodd" clip-rule="evenodd" d="M196.979 34.3748C198.387 35.8503 198.332 38.1875 196.856 39.5951L169.764 65.4412C168.337 66.8031 166.091 66.8021 164.664 65.4391L151.141 52.516C149.667 51.1071 149.614 48.7699 151.023 47.2956C152.432 45.8214 154.769 45.7683 156.243 47.1772L167.218 57.6646L191.759 34.2519C193.234 32.8443 195.572 32.8994 196.979 34.3748Z" fill="white"/>
<path fill-rule="evenodd" clip-rule="evenodd" d="M174 7.38462C151.569 7.38462 133.385 25.5687 133.385 48C133.385 70.4313 151.569 88.6154 174 88.6154C196.431 88.6154 214.615 70.4313 214.615 48C214.615 25.5687 196.431 7.38462 174 7.38462ZM126 48C126 21.4903 147.49 0 174 0C200.51 0 222 21.4903 222 48C222 74.5097 200.51 96 174 96C147.49 96 126 74.5097 126 48Z" fill="white"/>
<path d="M82.5547 137.932H78.9317V135.646H82.5547C83.1146 135.646 83.5704 135.555 83.9219 135.373C84.2735 135.184 84.5306 134.924 84.6934 134.592C84.8562 134.26 84.9375 133.885 84.9375 133.469C84.9375 133.046 84.8562 132.652 84.6934 132.287C84.5306 131.923 84.2735 131.63 83.9219 131.408C83.5704 131.187 83.1146 131.076 82.5547 131.076H79.9473V143H77.0176V128.781H82.5547C83.668 128.781 84.6218 128.983 85.4161 129.387C86.2168 129.784 86.8288 130.334 87.252 131.037C87.6752 131.74 87.8868 132.544 87.8868 133.449C87.8868 134.367 87.6752 135.161 87.252 135.832C86.8288 136.503 86.2168 137.02 85.4161 137.385C84.6218 137.749 83.668 137.932 82.5547 137.932ZM95.3184 140.617V135.91C95.3184 135.572 95.2631 135.282 95.1524 135.041C95.0417 134.794 94.8692 134.602 94.6348 134.465C94.4069 134.328 94.1107 134.26 93.7461 134.26C93.4336 134.26 93.1635 134.315 92.9356 134.426C92.7077 134.53 92.5319 134.683 92.4082 134.885C92.2846 135.08 92.2227 135.311 92.2227 135.578H89.4102C89.4102 135.129 89.5144 134.702 89.7227 134.299C89.931 133.895 90.2338 133.54 90.6309 133.234C91.028 132.922 91.5 132.678 92.0469 132.502C92.6003 132.326 93.2188 132.238 93.9024 132.238C94.7227 132.238 95.4519 132.375 96.0899 132.648C96.7279 132.922 97.2292 133.332 97.5938 133.879C97.9649 134.426 98.1504 135.109 98.1504 135.93V140.451C98.1504 141.031 98.1862 141.506 98.2579 141.877C98.3295 142.242 98.4336 142.561 98.5704 142.834V143H95.7286C95.5918 142.714 95.4877 142.355 95.4161 141.926C95.351 141.49 95.3184 141.053 95.3184 140.617ZM95.6895 136.564L95.709 138.156H94.1368C93.7657 138.156 93.4434 138.199 93.17 138.283C92.8965 138.368 92.6719 138.488 92.4961 138.645C92.3204 138.794 92.1901 138.97 92.1055 139.172C92.0274 139.374 91.9883 139.595 91.9883 139.836C91.9883 140.077 92.0437 140.295 92.1543 140.49C92.265 140.679 92.4245 140.829 92.6329 140.939C92.8412 141.044 93.0853 141.096 93.3653 141.096C93.7885 141.096 94.1563 141.011 94.4688 140.842C94.7813 140.673 95.0222 140.464 95.1915 140.217C95.3672 139.969 95.4584 139.735 95.4649 139.514L96.2071 140.705C96.1029 140.972 95.9597 141.249 95.7774 141.535C95.6016 141.822 95.377 142.092 95.1036 142.346C94.8301 142.593 94.5013 142.798 94.1172 142.961C93.7331 143.117 93.2774 143.195 92.75 143.195C92.0795 143.195 91.4707 143.062 90.9239 142.795C90.3835 142.521 89.9538 142.147 89.6348 141.672C89.3223 141.19 89.1661 140.643 89.1661 140.031C89.1661 139.478 89.2702 138.986 89.4786 138.557C89.6869 138.127 89.9929 137.766 90.3965 137.473C90.8067 137.173 91.3178 136.949 91.9297 136.799C92.5417 136.643 93.2513 136.564 94.0586 136.564H95.6895ZM107.008 132.434H109.557V142.648C109.557 143.612 109.342 144.429 108.912 145.1C108.489 145.777 107.897 146.288 107.135 146.633C106.373 146.984 105.488 147.16 104.479 147.16C104.036 147.16 103.567 147.102 103.072 146.984C102.584 146.867 102.115 146.685 101.666 146.438C101.223 146.19 100.852 145.878 100.553 145.5L101.793 143.84C102.119 144.217 102.496 144.51 102.926 144.719C103.356 144.934 103.831 145.041 104.352 145.041C104.859 145.041 105.289 144.947 105.641 144.758C105.992 144.576 106.262 144.305 106.451 143.947C106.64 143.596 106.734 143.169 106.734 142.668V134.875L107.008 132.434ZM99.8985 137.844V137.639C99.8985 136.831 99.9961 136.099 100.191 135.441C100.393 134.777 100.676 134.208 101.041 133.732C101.412 133.257 101.861 132.889 102.389 132.629C102.916 132.368 103.512 132.238 104.176 132.238C104.879 132.238 105.468 132.368 105.943 132.629C106.419 132.889 106.809 133.26 107.115 133.742C107.421 134.217 107.659 134.781 107.828 135.432C108.004 136.076 108.141 136.783 108.238 137.551V138C108.141 138.736 107.994 139.419 107.799 140.051C107.604 140.682 107.346 141.236 107.027 141.711C106.708 142.18 106.311 142.544 105.836 142.805C105.367 143.065 104.807 143.195 104.156 143.195C103.505 143.195 102.916 143.062 102.389 142.795C101.868 142.528 101.422 142.154 101.051 141.672C100.68 141.19 100.393 140.624 100.191 139.973C99.9961 139.322 99.8985 138.612 99.8985 137.844ZM102.711 137.639V137.844C102.711 138.28 102.753 138.687 102.838 139.064C102.923 139.442 103.053 139.777 103.229 140.07C103.411 140.357 103.635 140.581 103.902 140.744C104.176 140.9 104.498 140.979 104.869 140.979C105.384 140.979 105.803 140.871 106.129 140.656C106.454 140.435 106.699 140.132 106.861 139.748C107.024 139.364 107.119 138.921 107.145 138.42V137.141C107.132 136.73 107.076 136.363 106.979 136.037C106.881 135.705 106.744 135.422 106.568 135.188C106.393 134.953 106.165 134.771 105.885 134.641C105.605 134.51 105.273 134.445 104.889 134.445C104.518 134.445 104.195 134.53 103.922 134.699C103.655 134.862 103.43 135.087 103.248 135.373C103.072 135.66 102.939 135.998 102.848 136.389C102.757 136.773 102.711 137.189 102.711 137.639ZM117.447 140.617V135.91C117.447 135.572 117.392 135.282 117.281 135.041C117.171 134.794 116.998 134.602 116.764 134.465C116.536 134.328 116.24 134.26 115.875 134.26C115.563 134.26 115.292 134.315 115.064 134.426C114.837 134.53 114.661 134.683 114.537 134.885C114.413 135.08 114.352 135.311 114.352 135.578H111.539C111.539 135.129 111.643 134.702 111.852 134.299C112.06 133.895 112.363 133.54 112.76 133.234C113.157 132.922 113.629 132.678 114.176 132.502C114.729 132.326 115.348 132.238 116.031 132.238C116.852 132.238 117.581 132.375 118.219 132.648C118.857 132.922 119.358 133.332 119.723 133.879C120.094 134.426 120.279 135.109 120.279 135.93V140.451C120.279 141.031 120.315 141.506 120.387 141.877C120.458 142.242 120.563 142.561 120.699 142.834V143H117.857C117.721 142.714 117.617 142.355 117.545 141.926C117.48 141.49 117.447 141.053 117.447 140.617ZM117.818 136.564L117.838 138.156H116.266C115.895 138.156 115.572 138.199 115.299 138.283C115.025 138.368 114.801 138.488 114.625 138.645C114.449 138.794 114.319 138.97 114.234 139.172C114.156 139.374 114.117 139.595 114.117 139.836C114.117 140.077 114.173 140.295 114.283 140.49C114.394 140.679 114.553 140.829 114.762 140.939C114.97 141.044 115.214 141.096 115.494 141.096C115.917 141.096 116.285 141.011 116.598 140.842C116.91 140.673 117.151 140.464 117.32 140.217C117.496 139.969 117.587 139.735 117.594 139.514L118.336 140.705C118.232 140.972 118.089 141.249 117.906 141.535C117.731 141.822 117.506 142.092 117.232 142.346C116.959 142.593 116.63 142.798 116.246 142.961C115.862 143.117 115.406 143.195 114.879 143.195C114.208 143.195 113.6 143.062 113.053 142.795C112.512 142.521 112.083 142.147 111.764 141.672C111.451 141.19 111.295 140.643 111.295 140.031C111.295 139.478 111.399 138.986 111.607 138.557C111.816 138.127 112.122 137.766 112.525 137.473C112.936 137.173 113.447 136.949 114.059 136.799C114.671 136.643 115.38 136.564 116.188 136.564H117.818ZM125.26 134.621V143H122.438V132.434H125.084L125.26 134.621ZM124.869 137.346H124.088C124.088 136.61 124.176 135.933 124.352 135.314C124.534 134.689 124.798 134.149 125.143 133.693C125.494 133.231 125.927 132.873 126.441 132.619C126.956 132.365 127.551 132.238 128.229 132.238C128.697 132.238 129.127 132.31 129.518 132.453C129.908 132.59 130.244 132.808 130.523 133.107C130.81 133.4 131.031 133.785 131.188 134.26C131.344 134.729 131.422 135.292 131.422 135.949V143H128.609V136.262C128.609 135.78 128.544 135.409 128.414 135.148C128.284 134.888 128.098 134.706 127.857 134.602C127.623 134.497 127.34 134.445 127.008 134.445C126.643 134.445 126.324 134.52 126.051 134.67C125.784 134.82 125.563 135.028 125.387 135.295C125.211 135.555 125.081 135.861 124.996 136.213C124.912 136.564 124.869 136.942 124.869 137.346ZM131.158 137.023L130.152 137.15C130.152 136.46 130.237 135.819 130.406 135.227C130.582 134.634 130.839 134.113 131.178 133.664C131.523 133.215 131.949 132.867 132.457 132.619C132.965 132.365 133.551 132.238 134.215 132.238C134.723 132.238 135.185 132.313 135.602 132.463C136.018 132.606 136.373 132.837 136.666 133.156C136.966 133.469 137.193 133.879 137.35 134.387C137.512 134.895 137.594 135.516 137.594 136.252V143H134.772V136.252C134.772 135.764 134.706 135.393 134.576 135.139C134.453 134.878 134.27 134.699 134.029 134.602C133.795 134.497 133.515 134.445 133.189 134.445C132.851 134.445 132.555 134.514 132.301 134.65C132.047 134.781 131.835 134.963 131.666 135.197C131.497 135.432 131.37 135.705 131.285 136.018C131.201 136.324 131.158 136.659 131.158 137.023ZM144.635 143.195C143.814 143.195 143.079 143.065 142.428 142.805C141.777 142.538 141.223 142.17 140.768 141.701C140.318 141.232 139.973 140.689 139.732 140.07C139.492 139.445 139.371 138.781 139.371 138.078V137.688C139.371 136.887 139.485 136.154 139.713 135.49C139.941 134.826 140.266 134.25 140.689 133.762C141.119 133.273 141.64 132.899 142.252 132.639C142.864 132.372 143.554 132.238 144.322 132.238C145.071 132.238 145.735 132.362 146.314 132.609C146.894 132.857 147.379 133.208 147.77 133.664C148.167 134.12 148.466 134.667 148.668 135.305C148.87 135.936 148.971 136.639 148.971 137.414V138.586H140.572V136.711H146.207V136.496C146.207 136.105 146.135 135.757 145.992 135.451C145.856 135.139 145.647 134.891 145.367 134.709C145.087 134.527 144.729 134.436 144.293 134.436C143.922 134.436 143.603 134.517 143.336 134.68C143.069 134.842 142.851 135.07 142.682 135.363C142.519 135.656 142.395 136.001 142.311 136.398C142.232 136.789 142.193 137.219 142.193 137.688V138.078C142.193 138.501 142.252 138.892 142.369 139.25C142.493 139.608 142.665 139.917 142.887 140.178C143.115 140.438 143.388 140.64 143.707 140.783C144.033 140.926 144.4 140.998 144.811 140.998C145.318 140.998 145.79 140.9 146.227 140.705C146.669 140.503 147.05 140.201 147.369 139.797L148.736 141.281C148.515 141.6 148.212 141.906 147.828 142.199C147.451 142.492 146.995 142.733 146.461 142.922C145.927 143.104 145.318 143.195 144.635 143.195ZM153.326 134.689V143H150.514V132.434H153.15L153.326 134.689ZM152.916 137.346H152.154C152.154 136.564 152.255 135.861 152.457 135.236C152.659 134.605 152.942 134.068 153.307 133.625C153.671 133.176 154.104 132.834 154.606 132.6C155.113 132.359 155.68 132.238 156.305 132.238C156.8 132.238 157.252 132.31 157.662 132.453C158.072 132.596 158.424 132.824 158.717 133.137C159.016 133.449 159.244 133.863 159.4 134.377C159.563 134.891 159.645 135.52 159.645 136.262V143H156.813V136.252C156.813 135.783 156.747 135.419 156.617 135.158C156.487 134.898 156.295 134.715 156.041 134.611C155.794 134.501 155.488 134.445 155.123 134.445C154.745 134.445 154.417 134.52 154.137 134.67C153.863 134.82 153.635 135.028 153.453 135.295C153.277 135.555 153.144 135.861 153.053 136.213C152.962 136.564 152.916 136.942 152.916 137.346ZM166.959 132.434V134.426H160.807V132.434H166.959ZM162.33 129.826H165.143V139.816C165.143 140.122 165.182 140.357 165.26 140.52C165.344 140.682 165.468 140.796 165.631 140.861C165.794 140.92 165.999 140.949 166.246 140.949C166.422 140.949 166.578 140.943 166.715 140.93C166.858 140.91 166.979 140.891 167.076 140.871L167.086 142.941C166.845 143.02 166.585 143.081 166.305 143.127C166.025 143.173 165.716 143.195 165.377 143.195C164.759 143.195 164.218 143.094 163.756 142.893C163.3 142.684 162.949 142.352 162.701 141.896C162.454 141.441 162.33 140.842 162.33 140.1V129.826ZM167.857 137.824V137.619C167.857 136.844 167.968 136.132 168.189 135.48C168.411 134.823 168.733 134.253 169.156 133.771C169.579 133.29 170.1 132.915 170.719 132.648C171.337 132.375 172.047 132.238 172.848 132.238C173.648 132.238 174.361 132.375 174.986 132.648C175.611 132.915 176.135 133.29 176.559 133.771C176.988 134.253 177.314 134.823 177.535 135.48C177.757 136.132 177.867 136.844 177.867 137.619V137.824C177.867 138.592 177.757 139.305 177.535 139.963C177.314 140.614 176.988 141.184 176.559 141.672C176.135 142.154 175.615 142.528 174.996 142.795C174.378 143.062 173.668 143.195 172.867 143.195C172.066 143.195 171.354 143.062 170.729 142.795C170.11 142.528 169.586 142.154 169.156 141.672C168.733 141.184 168.411 140.614 168.189 139.963C167.968 139.305 167.857 138.592 167.857 137.824ZM170.67 137.619V137.824C170.67 138.267 170.709 138.68 170.787 139.064C170.865 139.449 170.989 139.787 171.158 140.08C171.334 140.367 171.562 140.591 171.842 140.754C172.122 140.917 172.464 140.998 172.867 140.998C173.258 140.998 173.593 140.917 173.873 140.754C174.153 140.591 174.378 140.367 174.547 140.08C174.716 139.787 174.84 139.449 174.918 139.064C175.003 138.68 175.045 138.267 175.045 137.824V137.619C175.045 137.189 175.003 136.786 174.918 136.408C174.84 136.024 174.713 135.686 174.537 135.393C174.368 135.093 174.143 134.859 173.863 134.689C173.583 134.52 173.245 134.436 172.848 134.436C172.451 134.436 172.112 134.52 171.832 134.689C171.559 134.859 171.334 135.093 171.158 135.393C170.989 135.686 170.865 136.024 170.787 136.408C170.709 136.786 170.67 137.189 170.67 137.619ZM190.279 140.617V135.91C190.279 135.572 190.224 135.282 190.113 135.041C190.003 134.794 189.83 134.602 189.596 134.465C189.368 134.328 189.072 134.26 188.707 134.26C188.395 134.26 188.124 134.315 187.897 134.426C187.669 134.53 187.493 134.683 187.369 134.885C187.245 135.08 187.184 135.311 187.184 135.578H184.371C184.371 135.129 184.475 134.702 184.684 134.299C184.892 133.895 185.195 133.54 185.592 133.234C185.989 132.922 186.461 132.678 187.008 132.502C187.561 132.326 188.18 132.238 188.863 132.238C189.684 132.238 190.413 132.375 191.051 132.648C191.689 132.922 192.19 133.332 192.555 133.879C192.926 134.426 193.111 135.109 193.111 135.93V140.451C193.111 141.031 193.147 141.506 193.219 141.877C193.29 142.242 193.395 142.561 193.531 142.834V143H190.689C190.553 142.714 190.449 142.355 190.377 141.926C190.312 141.49 190.279 141.053 190.279 140.617ZM190.65 136.564L190.67 138.156H189.098C188.727 138.156 188.404 138.199 188.131 138.283C187.857 138.368 187.633 138.488 187.457 138.645C187.281 138.794 187.151 138.97 187.066 139.172C186.988 139.374 186.949 139.595 186.949 139.836C186.949 140.077 187.005 140.295 187.115 140.49C187.226 140.679 187.385 140.829 187.594 140.939C187.802 141.044 188.046 141.096 188.326 141.096C188.749 141.096 189.117 141.011 189.43 140.842C189.742 140.673 189.983 140.464 190.152 140.217C190.328 139.969 190.419 139.735 190.426 139.514L191.168 140.705C191.064 140.972 190.921 141.249 190.738 141.535C190.563 141.822 190.338 142.092 190.064 142.346C189.791 142.593 189.462 142.798 189.078 142.961C188.694 143.117 188.238 143.195 187.711 143.195C187.04 143.195 186.432 143.062 185.885 142.795C185.344 142.521 184.915 142.147 184.596 141.672C184.283 141.19 184.127 140.643 184.127 140.031C184.127 139.478 184.231 138.986 184.439 138.557C184.648 138.127 184.954 137.766 185.357 137.473C185.768 137.173 186.279 136.949 186.891 136.799C187.503 136.643 188.212 136.564 189.02 136.564H190.65ZM198.092 134.465V147.062H195.279V132.434H197.887L198.092 134.465ZM204.781 137.6V137.805C204.781 138.573 204.69 139.286 204.508 139.943C204.332 140.601 204.072 141.174 203.727 141.662C203.382 142.144 202.952 142.521 202.438 142.795C201.93 143.062 201.344 143.195 200.68 143.195C200.035 143.195 199.475 143.065 199 142.805C198.525 142.544 198.124 142.18 197.799 141.711C197.48 141.236 197.223 140.686 197.027 140.061C196.832 139.436 196.682 138.765 196.578 138.049V137.512C196.682 136.743 196.832 136.04 197.027 135.402C197.223 134.758 197.48 134.201 197.799 133.732C198.124 133.257 198.522 132.889 198.99 132.629C199.466 132.368 200.022 132.238 200.66 132.238C201.331 132.238 201.92 132.365 202.428 132.619C202.942 132.873 203.372 133.238 203.717 133.713C204.068 134.188 204.332 134.755 204.508 135.412C204.69 136.07 204.781 136.799 204.781 137.6ZM201.959 137.805V137.6C201.959 137.15 201.92 136.737 201.842 136.359C201.77 135.975 201.653 135.64 201.49 135.354C201.334 135.067 201.126 134.846 200.865 134.689C200.611 134.527 200.302 134.445 199.938 134.445C199.553 134.445 199.225 134.507 198.951 134.631C198.684 134.755 198.466 134.934 198.297 135.168C198.128 135.402 198.001 135.682 197.916 136.008C197.831 136.333 197.779 136.701 197.76 137.111V138.469C197.792 138.951 197.884 139.383 198.033 139.768C198.183 140.145 198.414 140.445 198.727 140.666C199.039 140.887 199.449 140.998 199.957 140.998C200.328 140.998 200.641 140.917 200.895 140.754C201.148 140.585 201.354 140.354 201.51 140.061C201.673 139.768 201.787 139.429 201.852 139.045C201.923 138.661 201.959 138.247 201.959 137.805ZM209.342 134.738V143H206.529V132.434H209.176L209.342 134.738ZM212.525 132.365L212.477 134.973C212.34 134.953 212.174 134.937 211.979 134.924C211.79 134.904 211.617 134.895 211.461 134.895C211.064 134.895 210.719 134.947 210.426 135.051C210.139 135.148 209.898 135.295 209.703 135.49C209.514 135.686 209.371 135.923 209.273 136.203C209.182 136.483 209.13 136.802 209.117 137.16L208.551 136.984C208.551 136.301 208.619 135.673 208.756 135.1C208.893 134.52 209.091 134.016 209.352 133.586C209.619 133.156 209.944 132.824 210.328 132.59C210.712 132.355 211.152 132.238 211.647 132.238C211.803 132.238 211.962 132.251 212.125 132.277C212.288 132.297 212.421 132.326 212.525 132.365ZM213.111 137.824V137.619C213.111 136.844 213.222 136.132 213.443 135.48C213.665 134.823 213.987 134.253 214.41 133.771C214.833 133.29 215.354 132.915 215.973 132.648C216.591 132.375 217.301 132.238 218.102 132.238C218.902 132.238 219.615 132.375 220.24 132.648C220.865 132.915 221.389 133.29 221.813 133.771C222.242 134.253 222.568 134.823 222.789 135.48C223.01 136.132 223.121 136.844 223.121 137.619V137.824C223.121 138.592 223.01 139.305 222.789 139.963C222.568 140.614 222.242 141.184 221.813 141.672C221.389 142.154 220.869 142.528 220.25 142.795C219.632 143.062 218.922 143.195 218.121 143.195C217.32 143.195 216.607 143.062 215.982 142.795C215.364 142.528 214.84 142.154 214.41 141.672C213.987 141.184 213.665 140.614 213.443 139.963C213.222 139.305 213.111 138.592 213.111 137.824ZM215.924 137.619V137.824C215.924 138.267 215.963 138.68 216.041 139.064C216.119 139.449 216.243 139.787 216.412 140.08C216.588 140.367 216.816 140.591 217.096 140.754C217.376 140.917 217.717 140.998 218.121 140.998C218.512 140.998 218.847 140.917 219.127 140.754C219.407 140.591 219.632 140.367 219.801 140.08C219.97 139.787 220.094 139.449 220.172 139.064C220.257 138.68 220.299 138.267 220.299 137.824V137.619C220.299 137.189 220.257 136.786 220.172 136.408C220.094 136.024 219.967 135.686 219.791 135.393C219.622 135.093 219.397 134.859 219.117 134.689C218.837 134.52 218.499 134.436 218.102 134.436C217.704 134.436 217.366 134.52 217.086 134.689C216.813 134.859 216.588 135.093 216.412 135.393C216.243 135.686 216.119 136.024 216.041 136.408C215.963 136.786 215.924 137.189 215.924 137.619ZM228.287 140.949L230.631 132.434H233.57L230.006 143H228.229L228.287 140.949ZM226.676 132.434L229.029 140.959L229.078 143H227.291L223.727 132.434H226.676ZM240.377 140.617V135.91C240.377 135.572 240.322 135.282 240.211 135.041C240.1 134.794 239.928 134.602 239.693 134.465C239.466 134.328 239.169 134.26 238.805 134.26C238.492 134.26 238.222 134.315 237.994 134.426C237.766 134.53 237.591 134.683 237.467 134.885C237.343 135.08 237.281 135.311 237.281 135.578H234.469C234.469 135.129 234.573 134.702 234.781 134.299C234.99 133.895 235.292 133.54 235.689 133.234C236.087 132.922 236.559 132.678 237.106 132.502C237.659 132.326 238.277 132.238 238.961 132.238C239.781 132.238 240.51 132.375 241.148 132.648C241.787 132.922 242.288 133.332 242.652 133.879C243.023 134.426 243.209 135.109 243.209 135.93V140.451C243.209 141.031 243.245 141.506 243.316 141.877C243.388 142.242 243.492 142.561 243.629 142.834V143H240.787C240.65 142.714 240.546 142.355 240.475 141.926C240.41 141.49 240.377 141.053 240.377 140.617ZM240.748 136.564L240.768 138.156H239.195C238.824 138.156 238.502 138.199 238.229 138.283C237.955 138.368 237.731 138.488 237.555 138.645C237.379 138.794 237.249 138.97 237.164 139.172C237.086 139.374 237.047 139.595 237.047 139.836C237.047 140.077 237.102 140.295 237.213 140.49C237.324 140.679 237.483 140.829 237.691 140.939C237.9 141.044 238.144 141.096 238.424 141.096C238.847 141.096 239.215 141.011 239.527 140.842C239.84 140.673 240.081 140.464 240.25 140.217C240.426 139.969 240.517 139.735 240.523 139.514L241.266 140.705C241.162 140.972 241.018 141.249 240.836 141.535C240.66 141.822 240.436 142.092 240.162 142.346C239.889 142.593 239.56 142.798 239.176 142.961C238.792 143.117 238.336 143.195 237.809 143.195C237.138 143.195 236.529 143.062 235.982 142.795C235.442 142.521 235.012 142.147 234.693 141.672C234.381 141.19 234.225 140.643 234.225 140.031C234.225 139.478 234.329 138.986 234.537 138.557C234.745 138.127 235.051 137.766 235.455 137.473C235.865 137.173 236.376 136.949 236.988 136.799C237.6 136.643 238.31 136.564 239.117 136.564H240.748ZM251.617 140.695V128H254.449V143H251.9L251.617 140.695ZM244.938 137.844V137.639C244.938 136.831 245.029 136.099 245.211 135.441C245.393 134.777 245.66 134.208 246.012 133.732C246.363 133.257 246.796 132.889 247.311 132.629C247.825 132.368 248.411 132.238 249.068 132.238C249.687 132.238 250.227 132.368 250.69 132.629C251.158 132.889 251.555 133.26 251.881 133.742C252.213 134.217 252.48 134.781 252.682 135.432C252.884 136.076 253.03 136.783 253.121 137.551V138C253.03 138.736 252.884 139.419 252.682 140.051C252.48 140.682 252.213 141.236 251.881 141.711C251.555 142.18 251.158 142.544 250.69 142.805C250.221 143.065 249.674 143.195 249.049 143.195C248.391 143.195 247.805 143.062 247.291 142.795C246.783 142.528 246.354 142.154 246.002 141.672C245.657 141.19 245.393 140.624 245.211 139.973C245.029 139.322 244.938 138.612 244.938 137.844ZM247.75 137.639V137.844C247.75 138.28 247.783 138.687 247.848 139.064C247.919 139.442 248.033 139.777 248.19 140.07C248.352 140.357 248.561 140.581 248.815 140.744C249.075 140.9 249.391 140.979 249.762 140.979C250.244 140.979 250.641 140.871 250.953 140.656C251.266 140.435 251.503 140.132 251.666 139.748C251.835 139.364 251.933 138.921 251.959 138.42V137.141C251.94 136.73 251.881 136.363 251.783 136.037C251.692 135.705 251.555 135.422 251.373 135.188C251.197 134.953 250.976 134.771 250.709 134.641C250.449 134.51 250.139 134.445 249.781 134.445C249.417 134.445 249.104 134.53 248.844 134.699C248.583 134.862 248.372 135.087 248.209 135.373C248.053 135.66 247.936 135.998 247.857 136.389C247.786 136.773 247.75 137.189 247.75 137.639ZM256.197 137.824V137.619C256.197 136.844 256.308 136.132 256.529 135.48C256.751 134.823 257.073 134.253 257.496 133.771C257.919 133.29 258.44 132.915 259.059 132.648C259.677 132.375 260.387 132.238 261.188 132.238C261.988 132.238 262.701 132.375 263.326 132.648C263.951 132.915 264.475 133.29 264.898 133.771C265.328 134.253 265.654 134.823 265.875 135.48C266.096 136.132 266.207 136.844 266.207 137.619V137.824C266.207 138.592 266.096 139.305 265.875 139.963C265.654 140.614 265.328 141.184 264.898 141.672C264.475 142.154 263.954 142.528 263.336 142.795C262.718 143.062 262.008 143.195 261.207 143.195C260.406 143.195 259.693 143.062 259.068 142.795C258.45 142.528 257.926 142.154 257.496 141.672C257.073 141.184 256.751 140.614 256.529 139.963C256.308 139.305 256.197 138.592 256.197 137.824ZM259.01 137.619V137.824C259.01 138.267 259.049 138.68 259.127 139.064C259.205 139.449 259.329 139.787 259.498 140.08C259.674 140.367 259.902 140.591 260.182 140.754C260.462 140.917 260.803 140.998 261.207 140.998C261.598 140.998 261.933 140.917 262.213 140.754C262.493 140.591 262.718 140.367 262.887 140.08C263.056 139.787 263.18 139.449 263.258 139.064C263.343 138.68 263.385 138.267 263.385 137.824V137.619C263.385 137.189 263.343 136.786 263.258 136.408C263.18 136.024 263.053 135.686 262.877 135.393C262.708 135.093 262.483 134.859 262.203 134.689C261.923 134.52 261.585 134.436 261.188 134.436C260.79 134.436 260.452 134.52 260.172 134.689C259.898 134.859 259.674 135.093 259.498 135.393C259.329 135.686 259.205 136.024 259.127 136.408C259.049 136.786 259.01 137.189 259.01 137.619ZM271.109 128.781L270.787 138.654H268.443L268.111 128.781H271.109ZM268.033 141.711C268.033 141.294 268.176 140.949 268.463 140.676C268.756 140.396 269.14 140.256 269.615 140.256C270.097 140.256 270.481 140.396 270.768 140.676C271.054 140.949 271.197 141.294 271.197 141.711C271.197 142.115 271.054 142.456 270.768 142.736C270.481 143.016 270.097 143.156 269.615 143.156C269.14 143.156 268.756 143.016 268.463 142.736C268.176 142.456 268.033 142.115 268.033 141.711Z" fill="#C4C4CC"/>
</g>
</svg>
