<svg width="308" height="152" viewBox="0 0 308 152" fill="none" xmlns="http://www.w3.org/2000/svg">
<g opacity="0.4">
<path fill-rule="evenodd" clip-rule="evenodd" d="M154.039 15C135.814 15 121.039 29.7746 121.039 48C121.039 66.2254 135.814 81 154.039 81C172.264 81 187.039 66.2254 187.039 48C187.039 29.7746 172.264 15 154.039 15ZM115.039 48C115.039 26.4609 132.5 9 154.039 9C175.578 9 193.039 26.4609 193.039 48C193.039 69.5391 175.578 87 154.039 87C132.5 87 115.039 69.5391 115.039 48ZM154.039 24C155.696 24 157.039 25.3431 157.039 27V45H175.039C176.696 45 178.039 46.3431 178.039 48C178.039 49.6569 176.696 51 175.039 51H154.039C152.382 51 151.039 49.6569 151.039 48V27C151.039 25.3431 152.382 24 154.039 24Z" fill="white"/>
<path d="M13.2773 131.213L9.41016 143H6.29492L11.5781 128.781H13.5605L13.2773 131.213ZM16.4902 143L12.6133 131.213L12.3008 128.781H14.3027L19.6152 143H16.4902ZM16.3145 137.707V140.002H8.80469V137.707H16.3145ZM27.4473 132.434H29.9961V142.648C29.9961 143.612 29.7812 144.429 29.3516 145.1C28.9284 145.777 28.3359 146.288 27.5742 146.633C26.8125 146.984 25.9271 147.16 24.918 147.16C24.4753 147.16 24.0065 147.102 23.5117 146.984C23.0234 146.867 22.5547 146.685 22.1055 146.438C21.6628 146.19 21.2917 145.878 20.9922 145.5L22.2324 143.84C22.5579 144.217 22.9355 144.51 23.3652 144.719C23.7949 144.934 24.2702 145.041 24.791 145.041C25.2988 145.041 25.7285 144.947 26.0801 144.758C26.4316 144.576 26.7018 144.305 26.8906 143.947C27.0794 143.596 27.1738 143.169 27.1738 142.668V134.875L27.4473 132.434ZM20.3379 137.844V137.639C20.3379 136.831 20.4355 136.099 20.6309 135.441C20.8327 134.777 21.1159 134.208 21.4805 133.732C21.8516 133.257 22.3008 132.889 22.8281 132.629C23.3555 132.368 23.9512 132.238 24.6152 132.238C25.3184 132.238 25.9076 132.368 26.3828 132.629C26.8581 132.889 27.2487 133.26 27.5547 133.742C27.8607 134.217 28.0983 134.781 28.2676 135.432C28.4434 136.076 28.5801 136.783 28.6777 137.551V138C28.5801 138.736 28.4336 139.419 28.2383 140.051C28.043 140.682 27.7858 141.236 27.4668 141.711C27.1478 142.18 26.7507 142.544 26.2754 142.805C25.8066 143.065 25.2467 143.195 24.5957 143.195C23.9447 143.195 23.3555 143.062 22.8281 142.795C22.3073 142.528 21.8613 142.154 21.4902 141.672C21.1191 141.19 20.8327 140.624 20.6309 139.973C20.4355 139.322 20.3379 138.612 20.3379 137.844ZM23.1504 137.639V137.844C23.1504 138.28 23.1927 138.687 23.2773 139.064C23.362 139.442 23.4922 139.777 23.668 140.07C23.8503 140.357 24.0749 140.581 24.3418 140.744C24.6152 140.9 24.9375 140.979 25.3086 140.979C25.8229 140.979 26.2428 140.871 26.5684 140.656C26.8939 140.435 27.138 140.132 27.3008 139.748C27.4635 139.364 27.5579 138.921 27.584 138.42V137.141C27.571 136.73 27.5156 136.363 27.418 136.037C27.3203 135.705 27.1836 135.422 27.0078 135.188C26.832 134.953 26.6042 134.771 26.3242 134.641C26.0443 134.51 25.7122 134.445 25.3281 134.445C24.957 134.445 24.6348 134.53 24.3613 134.699C24.0944 134.862 23.8698 135.087 23.6875 135.373C23.5117 135.66 23.3783 135.998 23.2871 136.389C23.196 136.773 23.1504 137.189 23.1504 137.639ZM38.4336 140.471V132.434H41.2461V143H38.5996L38.4336 140.471ZM38.7461 138.303L39.5762 138.283C39.5762 138.986 39.4948 139.641 39.332 140.246C39.1693 140.845 38.9251 141.366 38.5996 141.809C38.2741 142.245 37.8639 142.587 37.3691 142.834C36.8743 143.075 36.2917 143.195 35.6211 143.195C35.1068 143.195 34.6315 143.124 34.1953 142.98C33.7656 142.831 33.3945 142.6 33.082 142.287C32.776 141.968 32.5352 141.561 32.3594 141.066C32.1901 140.565 32.1055 139.963 32.1055 139.26V132.434H34.918V139.279C34.918 139.592 34.9538 139.855 35.0254 140.07C35.1035 140.285 35.2109 140.461 35.3477 140.598C35.4844 140.734 35.6439 140.832 35.8262 140.891C36.015 140.949 36.2233 140.979 36.4512 140.979C37.0306 140.979 37.4863 140.861 37.8184 140.627C38.1569 140.393 38.3945 140.074 38.5312 139.67C38.6745 139.26 38.7461 138.804 38.7461 138.303ZM49.0977 140.617V135.91C49.0977 135.572 49.0423 135.282 48.9316 135.041C48.821 134.794 48.6484 134.602 48.4141 134.465C48.1862 134.328 47.89 134.26 47.5254 134.26C47.2129 134.26 46.9427 134.315 46.7148 134.426C46.487 134.53 46.3112 134.683 46.1875 134.885C46.0638 135.08 46.002 135.311 46.002 135.578H43.1895C43.1895 135.129 43.2936 134.702 43.502 134.299C43.7103 133.895 44.013 133.54 44.4102 133.234C44.8073 132.922 45.2793 132.678 45.8262 132.502C46.3796 132.326 46.998 132.238 47.6816 132.238C48.502 132.238 49.2311 132.375 49.8691 132.648C50.5072 132.922 51.0085 133.332 51.373 133.879C51.7441 134.426 51.9297 135.109 51.9297 135.93V140.451C51.9297 141.031 51.9655 141.506 52.0371 141.877C52.1087 142.242 52.2129 142.561 52.3496 142.834V143H49.5078C49.3711 142.714 49.2669 142.355 49.1953 141.926C49.1302 141.49 49.0977 141.053 49.0977 140.617ZM49.4688 136.564L49.4883 138.156H47.916C47.5449 138.156 47.2227 138.199 46.9492 138.283C46.6758 138.368 46.4512 138.488 46.2754 138.645C46.0996 138.794 45.9694 138.97 45.8848 139.172C45.8066 139.374 45.7676 139.595 45.7676 139.836C45.7676 140.077 45.8229 140.295 45.9336 140.49C46.0443 140.679 46.2038 140.829 46.4121 140.939C46.6204 141.044 46.8646 141.096 47.1445 141.096C47.5677 141.096 47.9355 141.011 48.248 140.842C48.5605 140.673 48.8014 140.464 48.9707 140.217C49.1465 139.969 49.2376 139.735 49.2441 139.514L49.9863 140.705C49.8822 140.972 49.7389 141.249 49.5566 141.535C49.3809 141.822 49.1562 142.092 48.8828 142.346C48.6094 142.593 48.2806 142.798 47.8965 142.961C47.5124 143.117 47.0566 143.195 46.5293 143.195C45.8587 143.195 45.25 143.062 44.7031 142.795C44.1628 142.521 43.7331 142.147 43.4141 141.672C43.1016 141.19 42.9453 140.643 42.9453 140.031C42.9453 139.478 43.0495 138.986 43.2578 138.557C43.4661 138.127 43.7721 137.766 44.1758 137.473C44.5859 137.173 45.097 136.949 45.709 136.799C46.321 136.643 47.0306 136.564 47.8379 136.564H49.4688ZM56.9102 134.738V143H54.0977V132.434H56.7441L56.9102 134.738ZM60.0938 132.365L60.0449 134.973C59.9082 134.953 59.7422 134.937 59.5469 134.924C59.3581 134.904 59.1855 134.895 59.0293 134.895C58.6322 134.895 58.2871 134.947 57.9941 135.051C57.7077 135.148 57.4668 135.295 57.2715 135.49C57.0827 135.686 56.9395 135.923 56.8418 136.203C56.7507 136.483 56.6986 136.802 56.6855 137.16L56.1191 136.984C56.1191 136.301 56.1875 135.673 56.3242 135.1C56.4609 134.52 56.6595 134.016 56.9199 133.586C57.1868 133.156 57.5124 132.824 57.8965 132.59C58.2806 132.355 58.7201 132.238 59.2148 132.238C59.3711 132.238 59.5306 132.251 59.6934 132.277C59.8561 132.297 59.9896 132.326 60.0938 132.365ZM67.4668 140.695V128H70.2988V143H67.75L67.4668 140.695ZM60.7871 137.844V137.639C60.7871 136.831 60.8783 136.099 61.0605 135.441C61.2428 134.777 61.5098 134.208 61.8613 133.732C62.2129 133.257 62.6458 132.889 63.1602 132.629C63.6745 132.368 64.2604 132.238 64.918 132.238C65.5365 132.238 66.0768 132.368 66.5391 132.629C67.0078 132.889 67.4049 133.26 67.7305 133.742C68.0625 134.217 68.3294 134.781 68.5312 135.432C68.7331 136.076 68.8796 136.783 68.9707 137.551V138C68.8796 138.736 68.7331 139.419 68.5312 140.051C68.3294 140.682 68.0625 141.236 67.7305 141.711C67.4049 142.18 67.0078 142.544 66.5391 142.805C66.0703 143.065 65.5234 143.195 64.8984 143.195C64.2409 143.195 63.6549 143.062 63.1406 142.795C62.6328 142.528 62.2031 142.154 61.8516 141.672C61.5065 141.19 61.2428 140.624 61.0605 139.973C60.8783 139.322 60.7871 138.612 60.7871 137.844ZM63.5996 137.639V137.844C63.5996 138.28 63.6322 138.687 63.6973 139.064C63.7689 139.442 63.8828 139.777 64.0391 140.07C64.2018 140.357 64.4102 140.581 64.6641 140.744C64.9245 140.9 65.2402 140.979 65.6113 140.979C66.0931 140.979 66.4902 140.871 66.8027 140.656C67.1152 140.435 67.3529 140.132 67.5156 139.748C67.6849 139.364 67.7826 138.921 67.8086 138.42V137.141C67.7891 136.73 67.7305 136.363 67.6328 136.037C67.5417 135.705 67.4049 135.422 67.2227 135.188C67.0469 134.953 66.8255 134.771 66.5586 134.641C66.2982 134.51 65.9889 134.445 65.6309 134.445C65.2663 134.445 64.9538 134.53 64.6934 134.699C64.4329 134.862 64.2214 135.087 64.0586 135.373C63.9023 135.66 63.7852 135.998 63.707 136.389C63.6354 136.773 63.5996 137.189 63.5996 137.639ZM78.1992 140.617V135.91C78.1992 135.572 78.1439 135.282 78.0332 135.041C77.9225 134.794 77.75 134.602 77.5156 134.465C77.2878 134.328 76.9915 134.26 76.627 134.26C76.3145 134.26 76.0443 134.315 75.8164 134.426C75.5885 134.53 75.4128 134.683 75.2891 134.885C75.1654 135.08 75.1035 135.311 75.1035 135.578H72.291C72.291 135.129 72.3952 134.702 72.6035 134.299C72.8118 133.895 73.1146 133.54 73.5117 133.234C73.9089 132.922 74.3809 132.678 74.9277 132.502C75.4811 132.326 76.0996 132.238 76.7832 132.238C77.6035 132.238 78.3327 132.375 78.9707 132.648C79.6087 132.922 80.11 133.332 80.4746 133.879C80.8457 134.426 81.0312 135.109 81.0312 135.93V140.451C81.0312 141.031 81.0671 141.506 81.1387 141.877C81.2103 142.242 81.3145 142.561 81.4512 142.834V143H78.6094C78.4727 142.714 78.3685 142.355 78.2969 141.926C78.2318 141.49 78.1992 141.053 78.1992 140.617ZM78.5703 136.564L78.5898 138.156H77.0176C76.6465 138.156 76.3242 138.199 76.0508 138.283C75.7773 138.368 75.5527 138.488 75.377 138.645C75.2012 138.794 75.071 138.97 74.9863 139.172C74.9082 139.374 74.8691 139.595 74.8691 139.836C74.8691 140.077 74.9245 140.295 75.0352 140.49C75.1458 140.679 75.3053 140.829 75.5137 140.939C75.722 141.044 75.9661 141.096 76.2461 141.096C76.6693 141.096 77.0371 141.011 77.3496 140.842C77.6621 140.673 77.903 140.464 78.0723 140.217C78.248 139.969 78.3392 139.735 78.3457 139.514L79.0879 140.705C78.9837 140.972 78.8405 141.249 78.6582 141.535C78.4824 141.822 78.2578 142.092 77.9844 142.346C77.7109 142.593 77.3822 142.798 76.998 142.961C76.6139 143.117 76.1582 143.195 75.6309 143.195C74.9603 143.195 74.3516 143.062 73.8047 142.795C73.2643 142.521 72.8346 142.147 72.5156 141.672C72.2031 141.19 72.0469 140.643 72.0469 140.031C72.0469 139.478 72.151 138.986 72.3594 138.557C72.5677 138.127 72.8737 137.766 73.2773 137.473C73.6875 137.173 74.1986 136.949 74.8105 136.799C75.4225 136.643 76.1322 136.564 76.9395 136.564H78.5703ZM85.9531 134.689V143H83.1406V132.434H85.7773L85.9531 134.689ZM85.543 137.346H84.7812C84.7812 136.564 84.8822 135.861 85.084 135.236C85.2858 134.605 85.569 134.068 85.9336 133.625C86.2982 133.176 86.7311 132.834 87.2324 132.6C87.7402 132.359 88.3066 132.238 88.9316 132.238C89.4264 132.238 89.8789 132.31 90.2891 132.453C90.6992 132.596 91.0508 132.824 91.3438 133.137C91.6432 133.449 91.8711 133.863 92.0273 134.377C92.1901 134.891 92.2715 135.52 92.2715 136.262V143H89.4395V136.252C89.4395 135.783 89.3743 135.419 89.2441 135.158C89.1139 134.898 88.9219 134.715 88.668 134.611C88.4206 134.501 88.1146 134.445 87.75 134.445C87.3724 134.445 87.0436 134.52 86.7637 134.67C86.4902 134.82 86.2624 135.028 86.0801 135.295C85.9043 135.555 85.7708 135.861 85.6797 136.213C85.5885 136.564 85.543 136.942 85.543 137.346ZM100.65 140.695V128H103.482V143H100.934L100.65 140.695ZM93.9707 137.844V137.639C93.9707 136.831 94.0618 136.099 94.2441 135.441C94.4264 134.777 94.6934 134.208 95.0449 133.732C95.3965 133.257 95.8294 132.889 96.3438 132.629C96.8581 132.368 97.444 132.238 98.1016 132.238C98.7201 132.238 99.2604 132.368 99.7227 132.629C100.191 132.889 100.589 133.26 100.914 133.742C101.246 134.217 101.513 134.781 101.715 135.432C101.917 136.076 102.063 136.783 102.154 137.551V138C102.063 138.736 101.917 139.419 101.715 140.051C101.513 140.682 101.246 141.236 100.914 141.711C100.589 142.18 100.191 142.544 99.7227 142.805C99.2539 143.065 98.707 143.195 98.082 143.195C97.4245 143.195 96.8385 143.062 96.3242 142.795C95.8164 142.528 95.3867 142.154 95.0352 141.672C94.6901 141.19 94.4264 140.624 94.2441 139.973C94.0618 139.322 93.9707 138.612 93.9707 137.844ZM96.7832 137.639V137.844C96.7832 138.28 96.8158 138.687 96.8809 139.064C96.9525 139.442 97.0664 139.777 97.2227 140.07C97.3854 140.357 97.5938 140.581 97.8477 140.744C98.1081 140.9 98.4238 140.979 98.7949 140.979C99.2767 140.979 99.6738 140.871 99.9863 140.656C100.299 140.435 100.536 140.132 100.699 139.748C100.868 139.364 100.966 138.921 100.992 138.42V137.141C100.973 136.73 100.914 136.363 100.816 136.037C100.725 135.705 100.589 135.422 100.406 135.188C100.23 134.953 100.009 134.771 99.7422 134.641C99.4818 134.51 99.1725 134.445 98.8145 134.445C98.4499 134.445 98.1374 134.53 97.877 134.699C97.6165 134.862 97.4049 135.087 97.2422 135.373C97.0859 135.66 96.9688 135.998 96.8906 136.389C96.819 136.773 96.7832 137.189 96.7832 137.639ZM105.23 137.824V137.619C105.23 136.844 105.341 136.132 105.562 135.48C105.784 134.823 106.106 134.253 106.529 133.771C106.952 133.29 107.473 132.915 108.092 132.648C108.71 132.375 109.42 132.238 110.221 132.238C111.021 132.238 111.734 132.375 112.359 132.648C112.984 132.915 113.508 133.29 113.932 133.771C114.361 134.253 114.687 134.823 114.908 135.48C115.13 136.132 115.24 136.844 115.24 137.619V137.824C115.24 138.592 115.13 139.305 114.908 139.963C114.687 140.614 114.361 141.184 113.932 141.672C113.508 142.154 112.988 142.528 112.369 142.795C111.751 143.062 111.041 143.195 110.24 143.195C109.439 143.195 108.727 143.062 108.102 142.795C107.483 142.528 106.959 142.154 106.529 141.672C106.106 141.184 105.784 140.614 105.562 139.963C105.341 139.305 105.23 138.592 105.23 137.824ZM108.043 137.619V137.824C108.043 138.267 108.082 138.68 108.16 139.064C108.238 139.449 108.362 139.787 108.531 140.08C108.707 140.367 108.935 140.591 109.215 140.754C109.495 140.917 109.837 140.998 110.24 140.998C110.631 140.998 110.966 140.917 111.246 140.754C111.526 140.591 111.751 140.367 111.92 140.08C112.089 139.787 112.213 139.449 112.291 139.064C112.376 138.68 112.418 138.267 112.418 137.824V137.619C112.418 137.189 112.376 136.786 112.291 136.408C112.213 136.024 112.086 135.686 111.91 135.393C111.741 135.093 111.516 134.859 111.236 134.689C110.956 134.52 110.618 134.436 110.221 134.436C109.824 134.436 109.485 134.52 109.205 134.689C108.932 134.859 108.707 135.093 108.531 135.393C108.362 135.686 108.238 136.024 108.16 136.408C108.082 136.786 108.043 137.189 108.043 137.619ZM124.762 134.465V147.062H121.949V132.434H124.557L124.762 134.465ZM131.451 137.6V137.805C131.451 138.573 131.36 139.286 131.178 139.943C131.002 140.601 130.742 141.174 130.396 141.662C130.051 142.144 129.622 142.521 129.107 142.795C128.6 143.062 128.014 143.195 127.35 143.195C126.705 143.195 126.145 143.065 125.67 142.805C125.195 142.544 124.794 142.18 124.469 141.711C124.15 141.236 123.893 140.686 123.697 140.061C123.502 139.436 123.352 138.765 123.248 138.049V137.512C123.352 136.743 123.502 136.04 123.697 135.402C123.893 134.758 124.15 134.201 124.469 133.732C124.794 133.257 125.191 132.889 125.66 132.629C126.135 132.368 126.692 132.238 127.33 132.238C128.001 132.238 128.59 132.365 129.098 132.619C129.612 132.873 130.042 133.238 130.387 133.713C130.738 134.188 131.002 134.755 131.178 135.412C131.36 136.07 131.451 136.799 131.451 137.6ZM128.629 137.805V137.6C128.629 137.15 128.59 136.737 128.512 136.359C128.44 135.975 128.323 135.64 128.16 135.354C128.004 135.067 127.796 134.846 127.535 134.689C127.281 134.527 126.972 134.445 126.607 134.445C126.223 134.445 125.895 134.507 125.621 134.631C125.354 134.755 125.136 134.934 124.967 135.168C124.798 135.402 124.671 135.682 124.586 136.008C124.501 136.333 124.449 136.701 124.43 137.111V138.469C124.462 138.951 124.553 139.383 124.703 139.768C124.853 140.145 125.084 140.445 125.396 140.666C125.709 140.887 126.119 140.998 126.627 140.998C126.998 140.998 127.311 140.917 127.564 140.754C127.818 140.585 128.023 140.354 128.18 140.061C128.342 139.768 128.456 139.429 128.521 139.045C128.593 138.661 128.629 138.247 128.629 137.805ZM138.902 140.617V135.91C138.902 135.572 138.847 135.282 138.736 135.041C138.626 134.794 138.453 134.602 138.219 134.465C137.991 134.328 137.695 134.26 137.33 134.26C137.018 134.26 136.747 134.315 136.52 134.426C136.292 134.53 136.116 134.683 135.992 134.885C135.868 135.08 135.807 135.311 135.807 135.578H132.994C132.994 135.129 133.098 134.702 133.307 134.299C133.515 133.895 133.818 133.54 134.215 133.234C134.612 132.922 135.084 132.678 135.631 132.502C136.184 132.326 136.803 132.238 137.486 132.238C138.307 132.238 139.036 132.375 139.674 132.648C140.312 132.922 140.813 133.332 141.178 133.879C141.549 134.426 141.734 135.109 141.734 135.93V140.451C141.734 141.031 141.77 141.506 141.842 141.877C141.913 142.242 142.018 142.561 142.154 142.834V143H139.312C139.176 142.714 139.072 142.355 139 141.926C138.935 141.49 138.902 141.053 138.902 140.617ZM139.273 136.564L139.293 138.156H137.721C137.35 138.156 137.027 138.199 136.754 138.283C136.48 138.368 136.256 138.488 136.08 138.645C135.904 138.794 135.774 138.97 135.689 139.172C135.611 139.374 135.572 139.595 135.572 139.836C135.572 140.077 135.628 140.295 135.738 140.49C135.849 140.679 136.008 140.829 136.217 140.939C136.425 141.044 136.669 141.096 136.949 141.096C137.372 141.096 137.74 141.011 138.053 140.842C138.365 140.673 138.606 140.464 138.775 140.217C138.951 139.969 139.042 139.735 139.049 139.514L139.791 140.705C139.687 140.972 139.544 141.249 139.361 141.535C139.186 141.822 138.961 142.092 138.688 142.346C138.414 142.593 138.085 142.798 137.701 142.961C137.317 143.117 136.861 143.195 136.334 143.195C135.663 143.195 135.055 143.062 134.508 142.795C133.967 142.521 133.538 142.147 133.219 141.672C132.906 141.19 132.75 140.643 132.75 140.031C132.75 139.478 132.854 138.986 133.062 138.557C133.271 138.127 133.577 137.766 133.98 137.473C134.391 137.173 134.902 136.949 135.514 136.799C136.126 136.643 136.835 136.564 137.643 136.564H139.273ZM150.592 132.434H153.141V142.648C153.141 143.612 152.926 144.429 152.496 145.1C152.073 145.777 151.48 146.288 150.719 146.633C149.957 146.984 149.072 147.16 148.062 147.16C147.62 147.16 147.151 147.102 146.656 146.984C146.168 146.867 145.699 146.685 145.25 146.438C144.807 146.19 144.436 145.878 144.137 145.5L145.377 143.84C145.702 144.217 146.08 144.51 146.51 144.719C146.939 144.934 147.415 145.041 147.936 145.041C148.443 145.041 148.873 144.947 149.225 144.758C149.576 144.576 149.846 144.305 150.035 143.947C150.224 143.596 150.318 143.169 150.318 142.668V134.875L150.592 132.434ZM143.482 137.844V137.639C143.482 136.831 143.58 136.099 143.775 135.441C143.977 134.777 144.26 134.208 144.625 133.732C144.996 133.257 145.445 132.889 145.973 132.629C146.5 132.368 147.096 132.238 147.76 132.238C148.463 132.238 149.052 132.368 149.527 132.629C150.003 132.889 150.393 133.26 150.699 133.742C151.005 134.217 151.243 134.781 151.412 135.432C151.588 136.076 151.725 136.783 151.822 137.551V138C151.725 138.736 151.578 139.419 151.383 140.051C151.188 140.682 150.93 141.236 150.611 141.711C150.292 142.18 149.895 142.544 149.42 142.805C148.951 143.065 148.391 143.195 147.74 143.195C147.089 143.195 146.5 143.062 145.973 142.795C145.452 142.528 145.006 142.154 144.635 141.672C144.264 141.19 143.977 140.624 143.775 139.973C143.58 139.322 143.482 138.612 143.482 137.844ZM146.295 137.639V137.844C146.295 138.28 146.337 138.687 146.422 139.064C146.507 139.442 146.637 139.777 146.812 140.07C146.995 140.357 147.219 140.581 147.486 140.744C147.76 140.9 148.082 140.979 148.453 140.979C148.967 140.979 149.387 140.871 149.713 140.656C150.038 140.435 150.283 140.132 150.445 139.748C150.608 139.364 150.702 138.921 150.729 138.42V137.141C150.715 136.73 150.66 136.363 150.562 136.037C150.465 135.705 150.328 135.422 150.152 135.188C149.977 134.953 149.749 134.771 149.469 134.641C149.189 134.51 148.857 134.445 148.473 134.445C148.102 134.445 147.779 134.53 147.506 134.699C147.239 134.862 147.014 135.087 146.832 135.373C146.656 135.66 146.523 135.998 146.432 136.389C146.34 136.773 146.295 137.189 146.295 137.639ZM161.031 140.617V135.91C161.031 135.572 160.976 135.282 160.865 135.041C160.755 134.794 160.582 134.602 160.348 134.465C160.12 134.328 159.824 134.26 159.459 134.26C159.146 134.26 158.876 134.315 158.648 134.426C158.421 134.53 158.245 134.683 158.121 134.885C157.997 135.08 157.936 135.311 157.936 135.578H155.123C155.123 135.129 155.227 134.702 155.436 134.299C155.644 133.895 155.947 133.54 156.344 133.234C156.741 132.922 157.213 132.678 157.76 132.502C158.313 132.326 158.932 132.238 159.615 132.238C160.436 132.238 161.165 132.375 161.803 132.648C162.441 132.922 162.942 133.332 163.307 133.879C163.678 134.426 163.863 135.109 163.863 135.93V140.451C163.863 141.031 163.899 141.506 163.971 141.877C164.042 142.242 164.146 142.561 164.283 142.834V143H161.441C161.305 142.714 161.201 142.355 161.129 141.926C161.064 141.49 161.031 141.053 161.031 140.617ZM161.402 136.564L161.422 138.156H159.85C159.479 138.156 159.156 138.199 158.883 138.283C158.609 138.368 158.385 138.488 158.209 138.645C158.033 138.794 157.903 138.97 157.818 139.172C157.74 139.374 157.701 139.595 157.701 139.836C157.701 140.077 157.757 140.295 157.867 140.49C157.978 140.679 158.137 140.829 158.346 140.939C158.554 141.044 158.798 141.096 159.078 141.096C159.501 141.096 159.869 141.011 160.182 140.842C160.494 140.673 160.735 140.464 160.904 140.217C161.08 139.969 161.171 139.735 161.178 139.514L161.92 140.705C161.816 140.972 161.673 141.249 161.49 141.535C161.314 141.822 161.09 142.092 160.816 142.346C160.543 142.593 160.214 142.798 159.83 142.961C159.446 143.117 158.99 143.195 158.463 143.195C157.792 143.195 157.184 143.062 156.637 142.795C156.096 142.521 155.667 142.147 155.348 141.672C155.035 141.19 154.879 140.643 154.879 140.031C154.879 139.478 154.983 138.986 155.191 138.557C155.4 138.127 155.706 137.766 156.109 137.473C156.52 137.173 157.031 136.949 157.643 136.799C158.255 136.643 158.964 136.564 159.771 136.564H161.402ZM168.844 134.621V143H166.021V132.434H168.668L168.844 134.621ZM168.453 137.346H167.672C167.672 136.61 167.76 135.933 167.936 135.314C168.118 134.689 168.382 134.149 168.727 133.693C169.078 133.231 169.511 132.873 170.025 132.619C170.54 132.365 171.135 132.238 171.812 132.238C172.281 132.238 172.711 132.31 173.102 132.453C173.492 132.59 173.827 132.808 174.107 133.107C174.394 133.4 174.615 133.785 174.771 134.26C174.928 134.729 175.006 135.292 175.006 135.949V143H172.193V136.262C172.193 135.78 172.128 135.409 171.998 135.148C171.868 134.888 171.682 134.706 171.441 134.602C171.207 134.497 170.924 134.445 170.592 134.445C170.227 134.445 169.908 134.52 169.635 134.67C169.368 134.82 169.146 135.028 168.971 135.295C168.795 135.555 168.665 135.861 168.58 136.213C168.495 136.564 168.453 136.942 168.453 137.346ZM174.742 137.023L173.736 137.15C173.736 136.46 173.821 135.819 173.99 135.227C174.166 134.634 174.423 134.113 174.762 133.664C175.107 133.215 175.533 132.867 176.041 132.619C176.549 132.365 177.135 132.238 177.799 132.238C178.307 132.238 178.769 132.313 179.186 132.463C179.602 132.606 179.957 132.837 180.25 133.156C180.549 133.469 180.777 133.879 180.934 134.387C181.096 134.895 181.178 135.516 181.178 136.252V143H178.355V136.252C178.355 135.764 178.29 135.393 178.16 135.139C178.036 134.878 177.854 134.699 177.613 134.602C177.379 134.497 177.099 134.445 176.773 134.445C176.435 134.445 176.139 134.514 175.885 134.65C175.631 134.781 175.419 134.963 175.25 135.197C175.081 135.432 174.954 135.705 174.869 136.018C174.785 136.324 174.742 136.659 174.742 137.023ZM188.219 143.195C187.398 143.195 186.663 143.065 186.012 142.805C185.361 142.538 184.807 142.17 184.352 141.701C183.902 141.232 183.557 140.689 183.316 140.07C183.076 139.445 182.955 138.781 182.955 138.078V137.688C182.955 136.887 183.069 136.154 183.297 135.49C183.525 134.826 183.85 134.25 184.273 133.762C184.703 133.273 185.224 132.899 185.836 132.639C186.448 132.372 187.138 132.238 187.906 132.238C188.655 132.238 189.319 132.362 189.898 132.609C190.478 132.857 190.963 133.208 191.354 133.664C191.751 134.12 192.05 134.667 192.252 135.305C192.454 135.936 192.555 136.639 192.555 137.414V138.586H184.156V136.711H189.791V136.496C189.791 136.105 189.719 135.757 189.576 135.451C189.439 135.139 189.231 134.891 188.951 134.709C188.671 134.527 188.313 134.436 187.877 134.436C187.506 134.436 187.187 134.517 186.92 134.68C186.653 134.842 186.435 135.07 186.266 135.363C186.103 135.656 185.979 136.001 185.895 136.398C185.816 136.789 185.777 137.219 185.777 137.688V138.078C185.777 138.501 185.836 138.892 185.953 139.25C186.077 139.608 186.249 139.917 186.471 140.178C186.699 140.438 186.972 140.64 187.291 140.783C187.617 140.926 187.984 140.998 188.395 140.998C188.902 140.998 189.374 140.9 189.811 140.705C190.253 140.503 190.634 140.201 190.953 139.797L192.32 141.281C192.099 141.6 191.796 141.906 191.412 142.199C191.035 142.492 190.579 142.733 190.045 142.922C189.511 143.104 188.902 143.195 188.219 143.195ZM196.91 134.689V143H194.098V132.434H196.734L196.91 134.689ZM196.5 137.346H195.738C195.738 136.564 195.839 135.861 196.041 135.236C196.243 134.605 196.526 134.068 196.891 133.625C197.255 133.176 197.688 132.834 198.189 132.6C198.697 132.359 199.264 132.238 199.889 132.238C200.383 132.238 200.836 132.31 201.246 132.453C201.656 132.596 202.008 132.824 202.301 133.137C202.6 133.449 202.828 133.863 202.984 134.377C203.147 134.891 203.229 135.52 203.229 136.262V143H200.396V136.252C200.396 135.783 200.331 135.419 200.201 135.158C200.071 134.898 199.879 134.715 199.625 134.611C199.378 134.501 199.072 134.445 198.707 134.445C198.329 134.445 198.001 134.52 197.721 134.67C197.447 134.82 197.219 135.028 197.037 135.295C196.861 135.555 196.728 135.861 196.637 136.213C196.546 136.564 196.5 136.942 196.5 137.346ZM210.543 132.434V134.426H204.391V132.434H210.543ZM205.914 129.826H208.727V139.816C208.727 140.122 208.766 140.357 208.844 140.52C208.928 140.682 209.052 140.796 209.215 140.861C209.378 140.92 209.583 140.949 209.83 140.949C210.006 140.949 210.162 140.943 210.299 140.93C210.442 140.91 210.562 140.891 210.66 140.871L210.67 142.941C210.429 143.02 210.169 143.081 209.889 143.127C209.609 143.173 209.299 143.195 208.961 143.195C208.342 143.195 207.802 143.094 207.34 142.893C206.884 142.684 206.533 142.352 206.285 141.896C206.038 141.441 205.914 140.842 205.914 140.1V129.826ZM211.441 137.824V137.619C211.441 136.844 211.552 136.132 211.773 135.48C211.995 134.823 212.317 134.253 212.74 133.771C213.163 133.29 213.684 132.915 214.303 132.648C214.921 132.375 215.631 132.238 216.432 132.238C217.232 132.238 217.945 132.375 218.57 132.648C219.195 132.915 219.719 133.29 220.143 133.771C220.572 134.253 220.898 134.823 221.119 135.48C221.34 136.132 221.451 136.844 221.451 137.619V137.824C221.451 138.592 221.34 139.305 221.119 139.963C220.898 140.614 220.572 141.184 220.143 141.672C219.719 142.154 219.199 142.528 218.58 142.795C217.962 143.062 217.252 143.195 216.451 143.195C215.65 143.195 214.938 143.062 214.312 142.795C213.694 142.528 213.17 142.154 212.74 141.672C212.317 141.184 211.995 140.614 211.773 139.963C211.552 139.305 211.441 138.592 211.441 137.824ZM214.254 137.619V137.824C214.254 138.267 214.293 138.68 214.371 139.064C214.449 139.449 214.573 139.787 214.742 140.08C214.918 140.367 215.146 140.591 215.426 140.754C215.706 140.917 216.048 140.998 216.451 140.998C216.842 140.998 217.177 140.917 217.457 140.754C217.737 140.591 217.962 140.367 218.131 140.08C218.3 139.787 218.424 139.449 218.502 139.064C218.587 138.68 218.629 138.267 218.629 137.824V137.619C218.629 137.189 218.587 136.786 218.502 136.408C218.424 136.024 218.297 135.686 218.121 135.393C217.952 135.093 217.727 134.859 217.447 134.689C217.167 134.52 216.829 134.436 216.432 134.436C216.035 134.436 215.696 134.52 215.416 134.689C215.143 134.859 214.918 135.093 214.742 135.393C214.573 135.686 214.449 136.024 214.371 136.408C214.293 136.786 214.254 137.189 214.254 137.619ZM230.914 134.689V143H228.102V132.434H230.738L230.914 134.689ZM230.504 137.346H229.742C229.742 136.564 229.843 135.861 230.045 135.236C230.247 134.605 230.53 134.068 230.895 133.625C231.259 133.176 231.692 132.834 232.193 132.6C232.701 132.359 233.268 132.238 233.893 132.238C234.387 132.238 234.84 132.31 235.25 132.453C235.66 132.596 236.012 132.824 236.305 133.137C236.604 133.449 236.832 133.863 236.988 134.377C237.151 134.891 237.232 135.52 237.232 136.262V143H234.4V136.252C234.4 135.783 234.335 135.419 234.205 135.158C234.075 134.898 233.883 134.715 233.629 134.611C233.382 134.501 233.076 134.445 232.711 134.445C232.333 134.445 232.005 134.52 231.725 134.67C231.451 134.82 231.223 135.028 231.041 135.295C230.865 135.555 230.732 135.861 230.641 136.213C230.549 136.564 230.504 136.942 230.504 137.346ZM238.922 137.824V137.619C238.922 136.844 239.033 136.132 239.254 135.48C239.475 134.823 239.798 134.253 240.221 133.771C240.644 133.29 241.165 132.915 241.783 132.648C242.402 132.375 243.111 132.238 243.912 132.238C244.713 132.238 245.426 132.375 246.051 132.648C246.676 132.915 247.2 133.29 247.623 133.771C248.053 134.253 248.378 134.823 248.6 135.48C248.821 136.132 248.932 136.844 248.932 137.619V137.824C248.932 138.592 248.821 139.305 248.6 139.963C248.378 140.614 248.053 141.184 247.623 141.672C247.2 142.154 246.679 142.528 246.061 142.795C245.442 143.062 244.732 143.195 243.932 143.195C243.131 143.195 242.418 143.062 241.793 142.795C241.174 142.528 240.65 142.154 240.221 141.672C239.798 141.184 239.475 140.614 239.254 139.963C239.033 139.305 238.922 138.592 238.922 137.824ZM241.734 137.619V137.824C241.734 138.267 241.773 138.68 241.852 139.064C241.93 139.449 242.053 139.787 242.223 140.08C242.398 140.367 242.626 140.591 242.906 140.754C243.186 140.917 243.528 140.998 243.932 140.998C244.322 140.998 244.658 140.917 244.938 140.754C245.217 140.591 245.442 140.367 245.611 140.08C245.781 139.787 245.904 139.449 245.982 139.064C246.067 138.68 246.109 138.267 246.109 137.824V137.619C246.109 137.189 246.067 136.786 245.982 136.408C245.904 136.024 245.777 135.686 245.602 135.393C245.432 135.093 245.208 134.859 244.928 134.689C244.648 134.52 244.309 134.436 243.912 134.436C243.515 134.436 243.176 134.52 242.896 134.689C242.623 134.859 242.398 135.093 242.223 135.393C242.053 135.686 241.93 136.024 241.852 136.408C241.773 136.786 241.734 137.189 241.734 137.619ZM260.006 140.998C260.351 140.998 260.657 140.933 260.924 140.803C261.191 140.666 261.399 140.477 261.549 140.236C261.705 139.989 261.786 139.699 261.793 139.367H264.439C264.433 140.109 264.234 140.77 263.844 141.35C263.453 141.923 262.929 142.375 262.271 142.707C261.614 143.033 260.878 143.195 260.064 143.195C259.244 143.195 258.528 143.059 257.916 142.785C257.311 142.512 256.806 142.134 256.402 141.652C255.999 141.164 255.696 140.598 255.494 139.953C255.292 139.302 255.191 138.605 255.191 137.863V137.58C255.191 136.831 255.292 136.135 255.494 135.49C255.696 134.839 255.999 134.273 256.402 133.791C256.806 133.303 257.311 132.922 257.916 132.648C258.521 132.375 259.231 132.238 260.045 132.238C260.911 132.238 261.669 132.404 262.32 132.736C262.978 133.068 263.492 133.544 263.863 134.162C264.241 134.774 264.433 135.5 264.439 136.34H261.793C261.786 135.988 261.712 135.669 261.568 135.383C261.432 135.096 261.23 134.868 260.963 134.699C260.702 134.523 260.38 134.436 259.996 134.436C259.586 134.436 259.251 134.523 258.99 134.699C258.73 134.868 258.528 135.103 258.385 135.402C258.242 135.695 258.141 136.031 258.082 136.408C258.03 136.779 258.004 137.17 258.004 137.58V137.863C258.004 138.273 258.03 138.667 258.082 139.045C258.134 139.423 258.232 139.758 258.375 140.051C258.525 140.344 258.73 140.575 258.99 140.744C259.251 140.913 259.589 140.998 260.006 140.998ZM271.773 140.617V135.91C271.773 135.572 271.718 135.282 271.607 135.041C271.497 134.794 271.324 134.602 271.09 134.465C270.862 134.328 270.566 134.26 270.201 134.26C269.889 134.26 269.618 134.315 269.391 134.426C269.163 134.53 268.987 134.683 268.863 134.885C268.74 135.08 268.678 135.311 268.678 135.578H265.865C265.865 135.129 265.969 134.702 266.178 134.299C266.386 133.895 266.689 133.54 267.086 133.234C267.483 132.922 267.955 132.678 268.502 132.502C269.055 132.326 269.674 132.238 270.357 132.238C271.178 132.238 271.907 132.375 272.545 132.648C273.183 132.922 273.684 133.332 274.049 133.879C274.42 134.426 274.605 135.109 274.605 135.93V140.451C274.605 141.031 274.641 141.506 274.713 141.877C274.785 142.242 274.889 142.561 275.025 142.834V143H272.184C272.047 142.714 271.943 142.355 271.871 141.926C271.806 141.49 271.773 141.053 271.773 140.617ZM272.145 136.564L272.164 138.156H270.592C270.221 138.156 269.898 138.199 269.625 138.283C269.352 138.368 269.127 138.488 268.951 138.645C268.775 138.794 268.645 138.97 268.561 139.172C268.482 139.374 268.443 139.595 268.443 139.836C268.443 140.077 268.499 140.295 268.609 140.49C268.72 140.679 268.88 140.829 269.088 140.939C269.296 141.044 269.54 141.096 269.82 141.096C270.243 141.096 270.611 141.011 270.924 140.842C271.236 140.673 271.477 140.464 271.646 140.217C271.822 139.969 271.913 139.735 271.92 139.514L272.662 140.705C272.558 140.972 272.415 141.249 272.232 141.535C272.057 141.822 271.832 142.092 271.559 142.346C271.285 142.593 270.956 142.798 270.572 142.961C270.188 143.117 269.732 143.195 269.205 143.195C268.535 143.195 267.926 143.062 267.379 142.795C266.839 142.521 266.409 142.147 266.09 141.672C265.777 141.19 265.621 140.643 265.621 140.031C265.621 139.478 265.725 138.986 265.934 138.557C266.142 138.127 266.448 137.766 266.852 137.473C267.262 137.173 267.773 136.949 268.385 136.799C268.997 136.643 269.706 136.564 270.514 136.564H272.145ZM279.742 132.434V143H276.92V132.434H279.742ZM276.744 129.68C276.744 129.27 276.887 128.931 277.174 128.664C277.46 128.397 277.844 128.264 278.326 128.264C278.801 128.264 279.182 128.397 279.469 128.664C279.762 128.931 279.908 129.27 279.908 129.68C279.908 130.09 279.762 130.428 279.469 130.695C279.182 130.962 278.801 131.096 278.326 131.096C277.844 131.096 277.46 130.962 277.174 130.695C276.887 130.428 276.744 130.09 276.744 129.68ZM284.332 132.434L286.08 135.646L287.877 132.434H290.875L287.887 137.6L291.012 143H288.004L286.1 139.602L284.195 143H281.188L284.312 137.6L281.324 132.434H284.332ZM297.945 140.617V135.91C297.945 135.572 297.89 135.282 297.779 135.041C297.669 134.794 297.496 134.602 297.262 134.465C297.034 134.328 296.738 134.26 296.373 134.26C296.061 134.26 295.79 134.315 295.562 134.426C295.335 134.53 295.159 134.683 295.035 134.885C294.911 135.08 294.85 135.311 294.85 135.578H292.037C292.037 135.129 292.141 134.702 292.35 134.299C292.558 133.895 292.861 133.54 293.258 133.234C293.655 132.922 294.127 132.678 294.674 132.502C295.227 132.326 295.846 132.238 296.529 132.238C297.35 132.238 298.079 132.375 298.717 132.648C299.355 132.922 299.856 133.332 300.221 133.879C300.592 134.426 300.777 135.109 300.777 135.93V140.451C300.777 141.031 300.813 141.506 300.885 141.877C300.956 142.242 301.061 142.561 301.197 142.834V143H298.355C298.219 142.714 298.115 142.355 298.043 141.926C297.978 141.49 297.945 141.053 297.945 140.617ZM298.316 136.564L298.336 138.156H296.764C296.393 138.156 296.07 138.199 295.797 138.283C295.523 138.368 295.299 138.488 295.123 138.645C294.947 138.794 294.817 138.97 294.732 139.172C294.654 139.374 294.615 139.595 294.615 139.836C294.615 140.077 294.671 140.295 294.781 140.49C294.892 140.679 295.051 140.829 295.26 140.939C295.468 141.044 295.712 141.096 295.992 141.096C296.415 141.096 296.783 141.011 297.096 140.842C297.408 140.673 297.649 140.464 297.818 140.217C297.994 139.969 298.085 139.735 298.092 139.514L298.834 140.705C298.73 140.972 298.587 141.249 298.404 141.535C298.229 141.822 298.004 142.092 297.73 142.346C297.457 142.593 297.128 142.798 296.744 142.961C296.36 143.117 295.904 143.195 295.377 143.195C294.706 143.195 294.098 143.062 293.551 142.795C293.01 142.521 292.581 142.147 292.262 141.672C291.949 141.19 291.793 140.643 291.793 140.031C291.793 139.478 291.897 138.986 292.105 138.557C292.314 138.127 292.62 137.766 293.023 137.473C293.434 137.173 293.945 136.949 294.557 136.799C295.169 136.643 295.878 136.564 296.686 136.564H298.316Z" fill="#C4C4CC"/>
</g>
</svg>
